<?xml version="1.0" encoding="UTF-8"?><svg version="1.1" width="512px" height="512px" viewBox="0 0 512.0 512.0" xmlns="http://www.w3.org/2000/svg" xmlns:xlink="http://www.w3.org/1999/xlink"><defs><clipPath id="i0"><path d="M512,0 L512,512 L0,512 L0,0 L512,0 Z"></path></clipPath><clipPath id="i1"><path d="M256,0 C397.384896,0 512,112.824243 512,252 C512,391.175757 397.384896,504 256,504 C114.615104,504 0,391.175757 0,252 C0,112.824243 114.615104,0 256,0 Z"></path></clipPath><clipPath id="i2"><path d="M67.2005571,0 L113.972145,183.996 L163.969359,0 L221.493036,0 L270.952646,183.996 L318.799443,0 L386,0 L305.359331,269 L241.384401,269 L193,97.3780002 L141.389972,269 L77.9526462,269 L0,0 L67.2005571,0 Z"></path></clipPath></defs><g clip-path="url(#i0)"><g clip-path="url(#i1)"><polygon points="0,0 512,0 512,504 0,504 0,0" stroke="none" fill="#000000"></polygon></g><g transform="translate(63.0 121.0)"><g clip-path="url(#i2)"><polygon points="0,0 386,0 386,269 0,269 0,0" stroke="none" fill="#FFFFFF"></polygon></g></g></g></svg>