<svg xmlns="http://www.w3.org/2000/svg" xmlns:xlink="http://www.w3.org/1999/xlink" width="191" height="36" viewBox="0 0 191 36"><title>Group</title><g id="Page-1" stroke="none" stroke-width="1" fill="none" fill-rule="evenodd"><g id="Tighter-Copy-4" transform="translate(-176.000000, -182.000000)" fill-rule="nonzero"><g id="Group" transform="translate(176.827900, 182.987830)"><g id="winston" fill="#000"><polygon id="Path" points="24.5448 26.3175699 28.8791 9.66216987 34.9666 9.66216987 27.6616 34.0121699 21.8663 34.0121699 17.4833 18.4768699 12.8081 34.0121699 7.0615 34.0121699 0 9.66216987 6.0875 9.66216987 10.3244 26.3175699 14.8535 9.66216987 20.0644 9.66216987"/><path d="M38.1298912.0H43.920232V5.88765745H38.1298912V0zm0 9.68300687H43.920232V34.0121699H38.1298912V9.68300687z" id="Shape"/><path d="M48.797156 34.0121699V9.68300687h5.8876575V12.5538481C55.2038356 11.8077538 55.8363939 11.1751955 56.5824882 10.6561734c1.5570664-1.13536095 3.4223023-1.70304142 5.5957075-1.70304142 1.32999419999999.0 2.5707815.27573052 3.7223619.82719155C67.052138 10.3317846 67.9360976 11.0292206 68.5524364 11.8726315 69.0390197 12.5214092 69.3958474 13.2999424 69.6229196 14.2082312 69.8499918 15.1165199 69.9797473 15.9193823 70.0121862 16.6168183 70.0446251 17.3142543 70.0608445 18.3441889 70.0608445 19.706622V34.0121699H64.2705037V21.6042967C64.2705037 19.5930859 64.2056259 18.3604083 64.0758704 17.906264 63.5244094 15.7328587 62.1944151 14.6461561 60.0858877 14.6461561 59.14516 14.6461561 58.2693102 14.8975575 57.4583381 15.4003602s-1.4273109 1.1596901-1.8490164 1.9706622C54.9929829 18.5712611 54.6848135 20.5986913 54.6848135 23.4533131V34.0121699H48.797156z" id="Path"/><path d="M73.4181439 30.4114537l4.330591-3.6007161C79.4355569 28.8868262 81.7711565 29.9248705 84.7555338 29.9248705 86.2801614 29.9248705 87.4641807 29.6248108 88.3075916 29.0246915 89.1510026 28.4245721 89.5727081 27.7676847 89.5727081 27.0540293c0-1.0704832-.843411000000003-1.7679192-2.5302329-2.0923081C86.8478419 24.9292824 85.9314434 24.7508685 84.2932797 24.4264797 82.6551161 24.1020908 81.6738399 23.8912381 81.349451 23.7939214 78.7543403 23.1775826 76.962092 22.2287453 75.972706 20.9474093 74.98332 19.6660734 74.4886271 18.31175 74.4886271 16.8844391c0-2.1734052.940727600000002-4.038641 2.8221829-5.5957075C79.1922652 9.7316652 81.7224982 8.95313198 84.9015088 8.95313198c3.1465718.0 5.8227797.77853322 8.02862379999999 2.33559962C93.8708602 11.9050704 94.6980518 12.6349453 95.4117072 13.4783563L91.2757495 17.3223641C90.010633 14.8570089 87.8047889 13.6243313 84.6582172 13.6243313 83.3606618 13.6243313 82.3631661 13.8676229 81.6657301 14.3542062c-.69743600000001.4865832-1.046154 1.0704831-1.046154 1.7516997C80.6195761 16.916878 81.000733 17.5088876 81.7630468 17.8819348S83.7823673 18.5874805 85.5340671 18.8794305C88.3238111 19.3984526 90.1809372 19.7796095 91.1054454 20.0229011 92.0299536 20.2661928 92.8490354 20.6797885 93.5626908 21.2636885c1.6543831 1.2651164 2.4815747 2.9843773 2.4815747 5.1577825.0 2.1409664-.948837399999988 4.0629702-2.8465121 5.7660116-1.8976747 1.7030415-4.5982118 2.5545622-8.1016113 2.5545622-4.8009548.0-8.6936209-1.4435304-11.6779982-4.3305911z" id="Path"/><path d="M111.76078 13.8676229h-5.206441V24.8644046C106.554339 25.8051322 106.570558 26.4701293 106.602997 26.859396 106.635436 27.2486626 106.732753 27.6622583 106.894947 28.1001833 107.057141 28.5381082 107.332872 28.8300582 107.722139 28.9760331c.389266000000006.145975.924508000000003.2189625 1.605724.2189625C110.30103 29.1949956 111.112002 29.0976789 111.76078 28.9030456v4.914491C110.203713 34.0770476 108.792622 34.2068032 107.527505 34.2068032c-3.535838.0-5.676804-.989386000000003-6.422899-2.9681579C100.845095 30.5898676 100.71534 28.9354845 100.71534 26.275496V13.8676229H97.1632819V9.68300687H100.71534V1.07048317h5.838999v8.6125237h5.206441V13.8676229z" id="Path"/><path d="M138.852126 21.7502717C138.852126 25.5456211 137.708655 28.659754 135.421714 31.0926703 133.134772 33.5255866 130.158505 34.7420448 126.492911 34.7420448c-3.762911.0-6.81216600000001-1.2245679-9.147766-3.6737036-2.335599-2.4491358-3.503399-5.5551589-3.503399-9.3180695.0-3.7304716 1.15969-6.7959462 3.47906999999999-9.1964236C119.640197 10.1533707 122.616464 8.95313198 126.249619 8.95313198 129.785457 8.95313198 132.761725 10.1128221 135.178422 12.4322023S138.819687 17.8576056 138.852126 21.7502717zM132.721176 21.6529551C132.656299 19.5444276 132.04807 17.7765084 130.896489 16.3491975c-1.15158-1.4273109-2.716756-2.1409663-4.695528-2.1409663C124.351944 14.2082312 122.843536 14.8894478 121.675736 16.2518809c-1.167799 1.3624331-1.751699 3.1465717-1.751699 5.3524158.0 2.4004775.632558000000003 4.2981522 1.897674 5.6930242C123.086828 28.6921929 124.643894 29.3896289 126.492911 29.3896289 128.504122 29.3896289 130.061188 28.6354249 131.16411 27.1270167 132.267032 25.6186086 132.786054 23.7939214 132.721176 21.6529551z" id="Shape"/><path d="M142.841983 34.0121699V9.68300687H148.729641V12.5538481C149.248663 11.8077538 149.881221 11.1751955 150.627315 10.6561734 152.184382 9.52081245 154.049618 8.95313198 156.223023 8.95313198c1.329994.0 2.57078099999998.27573052 3.72236199999998.82719155C161.096965 10.3317846 161.980925 11.0292206 162.597264 11.8726315 163.083847 12.5214092 163.440675 13.2999424 163.667747 14.2082312 163.894819 15.1165199 164.024574 15.9193823 164.057013 16.6168183 164.089452 17.3142543 164.105672 18.3441889 164.105672 19.706622V34.0121699H158.315331V21.6042967C158.315331 19.5930859 158.250453 18.3604083 158.120698 17.906264 157.569237 15.7328587 156.239242 14.6461561 154.130715 14.6461561 153.189987 14.6461561 152.314137 14.8975575 151.503165 15.4003602S150.075854 16.5600503 149.654149 17.3710224C149.03781 18.5712611 148.729641 20.5986913 148.729641 23.4533131V34.0121699H142.841983z" id="Path"/></g><g id="ai" transform="translate(168.970300, 3.552870)" fill="#3452fe"><path d="M4.4822 10.8371.7061 10.6222C.787966667 9.7012.992633333 8.9337 1.3201 8.3197c.9824-1.7806 3.01883333-2.6709 6.1093-2.6709 1.9648.0 3.4998.327466670000001 4.605.9824.8186667.4912 1.3303333 1.05403333 1.535 1.6885s.307 1.4736.307 2.5174v8.1355c0 .6549333.0358166999999998 1.1256667.10745 1.4122C14.0554833 20.6713333 14.2448 21.0295 14.5518 21.4593H10.1924C10.131 20.7225 10.1003 20.3234 10.1003 20.262c-1.228 1.0438-2.74253333 1.5657-4.5436 1.5657-1.67826667.0-3.02395-.455383300000001-4.03705-1.36615C.50655 19.5507833-568434189e-22 18.4097667-568434189e-22 17.0385-568434189e-22 16.3017.163733333 15.6058333.4912 14.9509.757266667 14.4392333 1.08985 13.9940833 1.48895 13.61545c.3991-.378633299999999.85448333-.6754 1.36615-.8903.51166667-.2149.94146667-.368399999999999 1.2894-.4605S4.92223333 12.0753333 5.4339 11.973C7.6443 11.5227333 9.23046667 11.1441 10.1924 10.8371 10.1924 10.5710333 10.1719333 10.3356667 10.131 10.131 10.0900667 9.92633333 9.99796667 9.68073333 9.8547 9.3942 9.71143333 9.10766667 9.44536667 8.88765 9.0565 8.73415 8.66763333 8.58065 8.17643333 8.5039 7.5829 8.5039c-1.33033333.0-2.2411.32746667-2.7323.9824-.2456.307-.3684.757266700000001-.3684 1.3508zm5.7102 4.6664V13.815C9.41466667 14.2038667 8.34016667 14.5108667 6.9689 14.736 6.37536667 14.8178667 5.89951667 14.90485 5.54135 14.99695 5.18318333 15.08905 4.8199 15.2937167 4.4515 15.61095 4.0831 15.9281833 3.8989 16.3426333 3.8989 16.8543c0 .593533300000001.22513333 1.0438.6754 1.3508C5.02456667 18.5121 5.62833333 18.6656 6.3856 18.6656 7.26566667 18.6656 8.03316667 18.4916333 8.6881 18.1437 9.34303333 17.7957667 9.77283333 17.3762 9.9775 16.885 10.1207667 16.578 10.1924 16.1175 10.1924 15.5035z" id="Shape"/><path d="M16.9541538.0h3.6533V3.7147h-3.6533V0zm0 6.1093h3.6533v15.35h-3.6533V6.1093z" id="Shape"/></g></g></g></g></svg>